<?xml version="1.0" encoding="utf-8"?>
<!-- Generator: Adobe Illustrator 27.5.0, SVG Export Plug-In . SVG Version: 6.00 Build 0)  -->
<svg version="1.1" id="Layer_1" xmlns="http://www.w3.org/2000/svg" xmlns:xlink="http://www.w3.org/1999/xlink" x="0px" y="0px"
	 viewBox="0 0 800 800" style="enable-background:new 0 0 800 800;" xml:space="preserve">
<style type="text/css">
	.st0{fill:none;stroke:#F3BB00;stroke-width:27;stroke-miterlimit:10;}
	.st1{fill:#F3BB00;}
</style>
<path class="st0" d="M534.69,126.71H265.31c-14.29,0-27.5,7.62-34.64,20L95.98,380c-7.15,12.38-7.15,27.62,0,40l134.69,233.29
	c7.15,12.38,20.35,20,34.64,20h269.37c14.29,0,27.5-7.62,34.64-20L704.02,420c7.15-12.38,7.15-27.62,0-40L569.33,146.71
	C562.18,134.34,548.98,126.71,534.69,126.71z"/>
<g>
	<g>
		<path class="st1" d="M299.48,273.28h107.64c37.68,0,65.22,7.44,82.62,22.32c17.4,14.88,26.1,38.64,26.1,71.28v65.16
			c0,32.4-8.76,56.04-26.28,70.92c-17.52,14.88-45,22.32-82.44,22.32H299.48V273.28z M344.48,487.12h52.92
			c22.32,0,38.22-4.2,47.7-12.6c9.48-8.4,14.22-22.32,14.22-41.76V365.8c0-19.68-4.74-33.66-14.22-41.94
			c-9.48-8.28-25.38-12.42-47.7-12.42h-52.92l11.88-28.8v233.64L344.48,487.12z"/>
	</g>
</g>
<g>
	<g>
	</g>
</g>
</svg>
